<?xml version="1.0" standalone="no"?>
<!DOCTYPE svg PUBLIC "-//W3C//DTD SVG 20010904//EN"
 "http://www.w3.org/TR/2001/REC-SVG-20010904/DTD/svg10.dtd">
<svg version="1.0" xmlns="http://www.w3.org/2000/svg"
 width="1292.000000pt" height="1292.000000pt" viewBox="0 0 1292.000000 1292.000000"
 preserveAspectRatio="xMidYMid meet">

<g transform="translate(0.000000,1292.000000) scale(0.100000,-0.100000)"
fill="#000000" stroke="none">
<path d="M23 12913 c-20 -8 -15 -23 7 -23 31 0 24 -20 -7 -21 -17 -1 -21 -3
-10 -6 19 -5 22 -18 7 -28 -6 -4 -8 -16 -5 -26 4 -11 1 -26 -5 -34 -9 -11 -9
-19 -2 -28 12 -14 11 -81 -1 -93 -11 -11 -8 -26 3 -19 5 3 10 2 10 -4 0 -5 -5
-13 -10 -16 -8 -5 -7 -11 1 -21 8 -10 8 -18 0 -27 -8 -10 -11 -1063 -11 -3822
0 -3395 1 -3806 15 -3795 8 7 15 21 15 31 0 10 9 24 21 32 11 8 19 21 18 28
-2 15 21 74 48 124 9 17 31 43 49 58 36 31 76 71 111 112 20 23 29 59 24 89
-1 5 -2 42 -3 82 -1 56 3 78 15 92 10 10 17 24 17 30 0 7 3 12 8 12 10 0 122
103 122 113 0 4 14 21 31 38 19 19 28 36 25 46 -4 8 -2 21 2 27 5 6 12 40 16
76 5 55 11 68 39 95 68 64 102 138 86 183 -7 17 -4 27 11 40 11 9 20 20 20 24
0 5 14 23 31 40 23 25 29 39 25 59 -3 14 -1 30 4 35 6 6 6 22 1 42 -7 24 -7
32 4 32 16 0 28 27 14 32 -24 8 9 40 93 90 143 84 146 86 167 107 10 10 22 28
25 38 3 11 20 29 36 42 17 12 28 26 25 31 -8 13 23 58 46 65 14 5 18 12 13 30
-4 18 1 30 21 49 20 19 23 26 13 33 -7 4 -18 18 -25 29 -11 20 -8 24 37 48 26
14 53 26 60 26 7 0 25 13 40 29 15 16 53 40 84 55 31 15 56 33 56 40 0 8 5 16
12 18 18 6 0 59 -22 65 -16 4 -18 9 -9 24 5 10 16 19 24 19 8 0 15 2 15 5 0 8
-50 54 -77 72 -28 19 -30 43 -4 43 10 0 21 6 24 14 6 15 100 41 115 32 6 -3
15 0 21 8 11 14 58 31 74 28 4 -1 7 5 7 13 0 8 6 12 13 9 7 -2 27 2 43 11 16
8 40 15 54 15 14 0 34 7 44 15 11 8 30 15 43 15 12 0 27 9 32 19 6 10 25 24
42 30 17 6 33 19 36 30 3 13 17 22 43 26 22 4 44 13 51 21 6 8 17 14 23 14 16
0 106 59 104 68 0 4 2 15 7 25 4 10 5 21 1 24 -3 3 11 15 32 25 20 11 49 32
63 47 44 44 80 71 95 71 13 0 52 18 64 30 3 3 27 16 54 30 50 25 90 77 81 103
-4 9 5 12 33 9 34 -3 42 1 70 32 20 23 32 47 32 66 0 16 4 32 10 35 5 3 14 24
20 46 10 36 14 41 36 36 13 -2 24 0 24 6 0 5 7 4 15 -3 8 -6 18 -9 24 -6 5 3
11 1 13 -5 3 -8 10 -8 26 2 28 18 34 37 23 76 -11 36 -7 43 26 43 13 0 34 10
47 23 12 12 34 28 48 36 14 7 32 24 39 37 7 13 16 24 20 24 19 0 49 45 43 63
-4 14 -3 17 6 12 9 -6 11 -4 5 4 -10 17 64 88 96 93 23 3 24 7 25 83 2 74 4
83 30 111 16 17 37 33 47 37 14 5 23 38 18 70 0 4 3 7 9 7 5 0 7 6 4 13 -2 7
7 24 21 37 l25 23 0 -21 c0 -12 -5 -22 -12 -22 -7 0 4 -11 23 -25 29 -23 34
-24 37 -9 2 9 -1 26 -6 38 -6 11 -24 63 -40 114 -25 78 -27 95 -16 106 10 11
11 20 2 43 -10 26 -8 33 9 50 29 29 74 37 116 20 19 -8 46 -13 61 -10 20 4 26
1 27 -13 0 -17 2 -17 16 4 8 12 23 22 32 22 9 0 28 10 42 23 22 18 25 28 21
61 -5 43 23 151 46 179 8 9 21 17 28 17 12 0 29 45 41 110 6 32 5 45 -3 101
-5 39 -2 52 20 87 16 26 36 44 54 48 48 12 62 32 62 89 0 39 4 54 16 59 8 3
12 10 9 16 -3 5 1 10 9 10 9 0 16 8 16 19 0 10 7 21 15 25 17 6 20 43 5 80 -7
19 -6 29 5 40 17 17 20 30 5 21 -5 -3 -10 -1 -10 4 0 6 9 11 19 11 13 0 28 15
42 40 19 34 28 40 55 40 36 0 59 21 51 49 -3 12 1 18 11 17 9 0 25 17 36 39
29 55 57 86 76 83 8 -1 31 3 50 9 19 6 51 11 72 12 25 0 45 9 64 26 22 20 37
26 61 23 18 -2 33 -1 33 3 0 4 10 11 23 15 32 9 54 36 62 75 6 28 9 31 18 18
8 -14 17 -15 46 -7 19 6 41 18 48 27 7 9 13 12 13 8 0 -5 7 -1 16 7 8 9 30 16
48 16 18 0 58 14 88 30 47 25 70 31 135 34 43 2 83 5 88 7 6 2 21 -3 34 -10
13 -7 43 -15 66 -16 59 -4 105 -15 105 -26 0 -6 7 -5 18 0 9 6 29 12 45 16 15
3 37 15 48 26 19 19 22 19 45 4 23 -15 31 -15 86 -1 33 8 66 20 74 27 11 9 21
8 45 -1 52 -22 78 -21 95 6 13 19 23 23 49 19 21 -2 35 1 38 8 5 12 44 16 63
6 5 -3 27 -7 50 -8 41 -2 53 5 115 62 10 9 19 13 19 7 0 -12 57 -14 62 -2 4
11 119 80 138 83 8 2 47 -3 87 -11 64 -11 76 -11 114 4 23 10 54 31 69 48 l27
30 21 -23 c12 -12 22 -25 22 -29 0 -13 61 -10 66 4 10 25 35 27 110 6 70 -20
74 -20 111 -3 21 9 50 16 64 14 14 -1 32 5 39 14 17 20 60 20 60 -1 0 -13 10
-15 61 -11 37 2 65 10 70 18 5 8 9 9 9 3 0 -6 15 -11 33 -11 75 -1 132 -15
150 -35 13 -16 20 -18 31 -9 10 9 16 8 26 -4 10 -12 16 -13 27 -3 8 6 26 13
40 14 14 2 31 8 36 13 18 18 25 13 29 -16 l3 -28 80 1 c101 2 127 5 140 20 13
15 75 27 75 14 0 -6 19 -10 43 -10 38 0 44 -4 57 -33 9 -19 22 -31 33 -31 9 1
17 -4 17 -12 0 -7 6 -11 13 -8 14 5 57 -30 74 -60 10 -17 17 -18 130 -6 107
10 124 10 152 -4 27 -14 31 -22 31 -55 0 -25 5 -41 15 -45 8 -3 20 -16 26 -30
6 -13 22 -30 35 -37 13 -7 24 -18 24 -25 0 -7 9 -33 20 -58 17 -42 22 -46 45
-40 36 9 76 -3 69 -21 -4 -8 -1 -15 6 -15 6 0 25 -13 42 -30 16 -16 35 -30 43
-30 7 0 18 -7 25 -15 7 -8 16 -12 21 -10 4 3 11 -1 16 -8 4 -8 19 -20 33 -27
14 -7 41 -26 62 -41 20 -16 50 -32 66 -35 17 -3 43 -19 58 -35 15 -16 33 -29
39 -29 12 0 45 -35 45 -48 0 -5 8 -17 18 -28 10 -10 25 -34 32 -51 8 -18 19
-33 25 -33 6 0 16 -9 22 -19 7 -11 26 -22 42 -26 17 -4 34 -11 37 -16 3 -6 17
-14 31 -20 14 -5 30 -23 36 -39 6 -17 15 -30 20 -30 5 0 5 -9 2 -20 -4 -14 -1
-22 11 -27 15 -5 82 -73 108 -109 9 -12 16 -11 50 6 21 12 41 19 44 16 3 -3 0
-6 -6 -6 -7 0 -12 -4 -12 -9 0 -16 59 -24 75 -11 8 7 22 10 30 6 9 -3 15 0 15
8 0 17 44 29 71 21 10 -4 19 -11 19 -17 0 -7 5 -6 14 1 9 8 16 8 20 2 7 -11
67 16 79 36 13 21 82 15 141 -12 44 -20 56 -31 61 -55 4 -16 4 -39 0 -50 -4
-13 -2 -20 7 -20 7 0 2 -6 -12 -13 -14 -7 -26 -18 -26 -25 -1 -7 -2 -16 -3
-22 0 -5 -9 -10 -18 -10 -12 0 -14 -3 -7 -10 14 -14 42 -3 49 20 5 15 11 17
35 10 18 -5 30 -5 30 1 0 18 25 8 43 -16 13 -18 14 -25 5 -25 -7 -1 -2 -7 11
-14 26 -14 53 -11 87 11 12 7 28 11 36 8 8 -3 27 -1 41 4 22 9 27 8 27 -5 0
-11 4 -12 19 -5 13 7 24 6 37 -4 13 -9 23 -10 31 -3 9 7 23 7 44 -1 18 -6 43
-11 55 -11 13 0 34 -9 47 -20 12 -12 29 -28 38 -36 10 -9 14 -24 11 -39 -4
-22 0 -27 24 -24 3 0 14 -11 25 -25 11 -14 23 -25 27 -25 18 3 32 -2 46 -17
17 -17 22 -49 6 -39 -6 3 -10 -5 -10 -19 0 -13 6 -26 12 -28 10 -4 10 -10 1
-31 -7 -15 -9 -27 -4 -27 5 0 13 -15 16 -32 4 -18 11 -35 16 -38 4 -3 10 -21
12 -40 2 -19 7 -42 10 -50 9 -24 20 -80 26 -132 1 -4 9 -14 18 -24 10 -9 19
-35 20 -58 5 -87 11 -137 17 -143 3 -4 6 -34 6 -68 0 -33 4 -65 9 -70 5 -6 12
-54 15 -107 3 -53 12 -114 20 -135 8 -21 20 -62 26 -90 16 -69 39 -97 96 -113
25 -7 48 -19 51 -27 6 -16 66 -17 93 -1 25 16 33 7 35 -38 2 -22 9 -41 19 -46
9 -5 13 -14 10 -20 -4 -7 -2 -8 4 -4 7 4 12 2 12 -4 0 -6 4 -9 9 -6 12 8 43
-42 35 -56 -5 -7 -3 -8 6 -3 10 6 12 4 7 -8 -7 -20 4 -55 18 -58 32 -5 55 -21
55 -37 0 -28 28 -60 59 -67 16 -3 35 -13 42 -22 7 -8 23 -19 36 -24 13 -5 32
-23 43 -41 22 -36 18 -71 -11 -104 -11 -11 -19 -26 -19 -32 0 -7 -10 -13 -22
-13 -18 -1 -19 -2 -5 -6 14 -4 16 -8 6 -19 -9 -11 -8 -18 2 -30 10 -13 10 -17
-2 -26 -11 -8 -11 -9 4 -4 10 3 17 0 17 -7 0 -8 16 -31 35 -53 19 -21 35 -50
35 -62 0 -13 8 -36 19 -50 10 -15 21 -36 25 -48 3 -11 17 -31 29 -43 28 -26
26 -77 -4 -86 -10 -3 -21 -15 -24 -26 -9 -27 -37 -36 -125 -38 -86 -2 -136
-16 -167 -49 -12 -13 -24 -23 -27 -23 -6 1 -7 -2 -5 -16 1 -5 0 -20 -1 -34 -1
-19 7 -32 27 -46 39 -28 87 -50 123 -58 16 -4 30 -11 30 -17 0 -6 3 -9 6 -5
16 16 149 -56 138 -74 -3 -6 1 -18 9 -27 7 -9 17 -25 20 -35 4 -10 11 -16 16
-12 15 9 33 -66 19 -82 -8 -10 -7 -13 4 -13 10 0 13 -9 10 -35 -3 -24 -9 -35
-21 -35 -20 0 -50 -33 -47 -52 1 -7 5 -19 10 -27 5 -8 4 -16 -4 -21 -10 -6 -8
-13 9 -31 11 -12 21 -31 21 -41 0 -10 5 -18 10 -18 6 0 10 -5 10 -11 0 -6 9
-24 21 -40 11 -16 17 -34 14 -40 -7 -11 27 -49 44 -49 6 0 23 -25 38 -56 15
-30 32 -64 38 -75 5 -10 15 -19 22 -19 15 0 56 -57 49 -69 -3 -5 1 -14 9 -21
8 -7 15 -19 15 -27 0 -8 4 -12 8 -9 4 2 9 -9 10 -25 3 -35 44 -80 90 -98 19
-8 32 -21 32 -31 0 -10 7 -23 15 -30 21 -17 20 -44 -1 -36 -12 5 -15 2 -9 -11
4 -10 8 -27 9 -39 2 -11 17 -41 34 -66 17 -25 39 -65 48 -89 10 -24 28 -57 41
-72 13 -16 23 -36 23 -46 0 -17 29 -51 43 -51 3 0 17 -10 30 -22 13 -13 45
-41 71 -63 26 -22 55 -47 64 -55 10 -9 30 -22 46 -30 16 -8 31 -23 34 -32 2
-10 11 -18 18 -18 8 0 14 -4 14 -10 0 -5 9 -10 19 -10 11 0 21 -3 23 -8 2 -4
24 -25 51 -46 l47 -38 0 3831 0 3831 -6442 -1 c-3544 0 -6449 -3 -6455 -6z
m1563 -5350 c-10 -10 -19 5 -10 18 6 11 8 11 12 0 2 -7 1 -15 -2 -18z"/>
<path d="M8669 9536 c-2 -3 -17 -7 -33 -10 -16 -3 -32 -9 -35 -14 -3 -5 -17
-13 -31 -17 -14 -4 -37 -18 -52 -31 -16 -12 -37 -25 -48 -29 -11 -3 -20 -11
-20 -16 0 -5 -6 -9 -13 -9 -7 0 -30 -16 -52 -35 -22 -19 -45 -35 -51 -35 -14
0 -104 -83 -104 -96 0 -6 -9 -19 -20 -29 -11 -10 -20 -26 -20 -37 0 -10 -7
-18 -15 -18 -10 0 -15 -10 -15 -30 0 -16 -5 -30 -11 -30 -5 0 -7 -4 -4 -10 5
-9 -6 -14 -26 -12 -3 1 -11 -10 -17 -23 -9 -20 -8 -26 6 -35 13 -7 14 -12 4
-18 -17 -12 -11 -62 9 -73 21 -11 40 -64 32 -86 -4 -9 1 -19 10 -25 10 -5 17
-15 17 -23 0 -25 63 -205 71 -205 5 0 9 -7 9 -15 0 -17 106 -132 115 -124 4 5
58 -38 87 -69 4 -4 24 -26 45 -48 21 -23 62 -55 92 -70 30 -16 61 -34 70 -39
9 -6 39 -23 66 -40 53 -31 134 -89 174 -124 14 -12 35 -24 48 -27 13 -4 23
-10 23 -15 0 -5 6 -9 13 -9 13 0 59 -19 99 -41 10 -5 25 -9 33 -9 9 0 18 -7
21 -15 4 -8 14 -15 24 -15 10 0 20 -6 23 -14 9 -24 109 -62 149 -57 9 1 33 -5
53 -14 75 -31 127 -13 154 52 11 26 11 55 2 145 -9 96 -8 121 5 168 24 81 44
170 50 215 3 22 10 52 16 66 7 20 6 34 -6 57 -10 19 -16 56 -16 97 0 36 -4 73
-9 83 -5 9 -15 38 -22 65 -6 26 -17 51 -23 55 -6 4 -22 28 -36 54 -51 95 -219
268 -260 268 -17 0 -53 23 -80 51 -14 14 -43 37 -65 50 -22 12 -42 26 -45 30
-3 3 -15 10 -28 14 -13 4 -21 9 -18 12 9 10 -29 41 -59 49 -16 4 -37 15 -45
24 -8 10 -25 20 -37 24 -13 4 -23 13 -23 20 0 7 -9 22 -20 34 -11 12 -20 25
-20 30 0 13 -130 39 -141 28z m141 -606 c15 -29 12 -67 -10 -112 -11 -23 -20
-48 -20 -55 0 -7 -5 -13 -10 -13 -6 0 -7 -7 -1 -17 32 -63 33 -70 20 -94 -7
-13 -13 -27 -14 -31 0 -3 -3 -9 -6 -12 -13 -13 -38 33 -64 116 -25 81 -26 89
-12 117 10 19 13 45 10 69 -4 33 -1 42 17 55 26 18 74 6 90 -23z"/>
<path d="M4572 9444 c-12 -8 -22 -22 -22 -30 0 -8 -6 -17 -12 -19 -7 -2 -26
-10 -43 -16 -44 -17 -86 -19 -123 -7 -47 14 -113 -18 -141 -70 -7 -12 -21 -22
-34 -22 -34 0 -151 -26 -175 -39 -12 -6 -22 -19 -22 -27 0 -8 -4 -13 -9 -10
-4 3 -16 -3 -25 -13 -9 -10 -36 -22 -59 -25 -33 -6 -52 -18 -95 -64 -156 -166
-163 -172 -187 -172 -16 0 -25 -6 -25 -15 0 -8 -4 -15 -10 -15 -5 0 -10 -9
-10 -19 0 -11 -5 -21 -11 -23 -6 -2 -11 -16 -11 -31 0 -15 -4 -30 -9 -33 -5
-3 -9 -17 -9 -32 0 -15 -11 -49 -25 -77 -22 -45 -24 -62 -25 -180 0 -145 21
-264 82 -456 38 -121 51 -143 84 -135 13 4 25 2 28 -3 7 -11 67 -4 80 9 5 5
15 6 23 3 7 -3 21 1 31 10 9 8 28 18 42 22 23 7 78 45 122 85 9 8 40 23 70 34
29 10 56 23 59 28 4 6 19 11 33 11 15 0 25 1 23 3 -2 2 22 31 53 64 36 38 64
60 79 60 12 0 24 6 27 14 3 8 12 12 20 9 8 -3 14 1 14 8 0 7 2 10 5 7 3 -2 44
33 92 79 48 46 92 83 99 83 6 0 23 11 37 24 15 14 35 29 44 35 14 7 18 22 18
60 0 49 8 65 18 39 3 -8 6 -5 6 5 1 11 -8 21 -18 24 -11 3 -25 18 -31 33 -14
34 -4 74 15 66 15 -5 49 50 39 65 -10 17 23 9 39 -9 11 -12 17 -37 17 -73 1
-140 96 -119 135 31 3 14 8 45 11 70 3 24 15 62 26 83 23 46 27 193 8 253 -7
19 -10 38 -7 41 3 2 -6 26 -19 53 -13 26 -24 51 -24 55 0 11 -64 65 -92 78
-16 6 -28 15 -28 20 0 9 -122 67 -142 67 -7 0 -24 -7 -36 -16z m-253 -610 c15
-19 21 -41 21 -78 0 -67 32 -125 83 -150 32 -15 38 -23 35 -44 -2 -16 -13 -32
-29 -41 -23 -13 -30 -12 -65 5 -52 25 -128 151 -137 226 -11 92 45 142 92 82z"/>
<path d="M10602 9428 c-7 -7 -12 -8 -12 -4 0 5 -7 3 -15 -4 -8 -6 -34 -18 -57
-25 -24 -7 -43 -18 -43 -26 0 -8 -7 -13 -16 -12 -11 2 -15 -6 -15 -30 1 -28
-3 -33 -31 -42 -22 -6 -33 -15 -33 -27 0 -10 -4 -18 -10 -18 -5 0 -10 -7 -10
-15 0 -8 5 -15 10 -15 6 0 10 5 10 10 0 6 5 10 11 10 6 0 8 -7 5 -16 -5 -12
-1 -14 17 -8 12 4 30 7 40 6 9 -1 25 -2 35 -3 9 -1 20 -7 24 -13 4 -6 9 -4 14
7 3 9 15 17 26 17 10 0 17 4 13 9 -9 16 39 17 53 1 8 -8 11 -10 7 -3 -3 7 3
21 14 32 11 11 17 22 14 25 -4 3 -1 6 6 6 7 0 11 7 8 14 -4 10 -1 13 9 9 9 -3
14 1 14 14 0 10 5 24 11 30 8 8 5 13 -11 18 -12 4 -19 12 -17 19 6 15 -26 46
-46 46 -7 0 -18 -5 -25 -12z"/>
<path d="M10708 9413 c7 -3 16 -2 19 1 4 3 -2 6 -13 5 -11 0 -14 -3 -6 -6z"/>
<path d="M7322 3923 c-9 -13 -14 -15 -18 -5 -3 6 -10 12 -15 12 -6 0 -7 -5 -4
-10 8 -13 -14 -42 -26 -35 -8 5 -22 -50 -19 -70 5 -24 -2 -36 -25 -45 -14 -5
-25 -14 -25 -20 0 -5 -7 -10 -15 -10 -8 0 -15 5 -15 12 0 6 -10 -1 -23 -16
-16 -18 -26 -23 -33 -16 -7 7 -19 4 -36 -10 -19 -15 -28 -17 -31 -8 -3 8 -9 3
-15 -12 -6 -14 -11 -20 -11 -13 -1 7 -8 10 -16 7 -8 -4 -15 -1 -15 5 0 6 -5
11 -11 11 -5 0 -8 -4 -5 -9 3 -5 0 -14 -8 -20 -10 -9 -15 -9 -18 -1 -5 15 -38
1 -38 -15 0 -16 -25 -26 -46 -18 -14 5 -16 1 -12 -21 6 -32 -8 -45 -17 -16 -8
26 -25 26 -18 0 6 -22 -22 -29 -30 -7 -4 9 -8 9 -14 1 -12 -17 -53 -28 -53
-14 0 6 4 9 9 6 5 -3 11 1 15 9 6 18 1 19 -25 4 -11 -5 -17 -14 -14 -20 4 -5
2 -9 -4 -9 -5 0 -17 -3 -27 -7 -14 -5 -16 -3 -11 11 6 15 3 17 -18 12 -19 -5
-23 -3 -19 9 4 9 0 15 -9 15 -8 0 -17 -6 -20 -12 -2 -8 -8 -9 -13 -4 -5 5 -4
11 4 13 16 6 15 23 -2 23 -7 0 -20 9 -27 20 -12 19 -18 20 -47 9 -25 -8 -36
-8 -47 1 -8 6 -18 9 -23 6 -6 -3 -13 4 -17 17 -4 13 -8 17 -12 10 -6 -17 -21
-16 -39 2 -18 18 -44 20 -44 3 0 -6 -3 -8 -7 -5 -10 11 -33 -14 -33 -37 0 -18
-6 -21 -40 -20 -22 0 -45 5 -51 11 -14 14 -53 -22 -44 -40 4 -7 0 -4 -8 6 -15
18 -37 23 -37 8 0 -6 10 -17 22 -25 12 -9 20 -17 17 -20 -8 -7 -49 13 -49 24
0 6 -5 8 -11 5 -6 -4 -8 -14 -5 -22 4 -10 0 -14 -17 -12 -12 2 -27 0 -33 -3
-12 -8 -27 -5 -74 13 -19 7 -38 13 -41 12 -4 -1 -6 5 -5 15 0 9 -5 16 -12 14
-9 -2 -11 2 -6 10 14 22 13 40 -2 56 -11 11 -12 17 -4 22 8 5 3 10 -13 14 -19
4 -26 15 -31 41 -5 26 -12 35 -26 35 -11 0 -20 7 -20 15 0 8 -7 15 -16 15 -9
0 -12 -5 -8 -12 6 -10 4 -10 -8 0 -10 8 -26 10 -42 6 -21 -5 -26 -12 -24 -33
1 -14 -2 -36 -6 -48 -4 -12 -3 -30 3 -40 6 -13 6 -33 -2 -61 -9 -32 -8 -47 0
-62 7 -10 9 -20 5 -22 -5 -2 -5 -36 -2 -76 5 -67 3 -76 -17 -96 -12 -12 -25
-34 -29 -50 -5 -21 -9 -24 -16 -14 -7 10 -10 10 -18 -4 -11 -19 -45 -14 -73
11 -10 8 -37 17 -60 19 -23 1 -58 4 -77 5 -19 2 -61 7 -94 11 -45 7 -60 6 -67
-5 -7 -12 -9 -12 -9 0 0 10 -8 12 -30 8 -17 -4 -30 -2 -30 4 0 6 -6 6 -19 0
-10 -6 -21 -7 -25 -4 -3 4 -13 -2 -21 -13 -8 -10 -15 -14 -15 -7 0 14 -37 11
-65 -4 -15 -9 -26 -8 -47 3 -25 13 -29 12 -52 -11 -27 -27 -46 -25 -79 8 -11
11 -27 17 -38 14 -12 -3 -19 0 -19 10 0 8 -5 11 -11 8 -6 -4 -16 0 -22 9 -10
13 -55 24 -114 28 -7 1 -13 4 -13 8 0 11 -53 32 -59 23 -11 -15 -71 -12 -71 3
0 8 -9 13 -22 11 -15 -1 -22 3 -20 12 2 9 -4 12 -21 7 -15 -3 -40 3 -69 19
-25 13 -48 22 -51 19 -3 -3 -4 3 -3 13 1 13 -6 18 -26 17 -17 -1 -28 4 -28 12
0 8 -6 11 -15 8 -8 -4 -15 -1 -15 7 0 7 -3 9 -7 6 -3 -4 -12 1 -20 11 -14 16
-14 16 -9 0 3 -10 1 -20 -4 -23 -6 -4 -10 3 -10 14 0 14 -6 21 -20 21 -11 0
-20 5 -20 11 0 5 4 8 9 4 11 -6 26 13 17 22 -3 4 -14 -2 -25 -11 -12 -11 -21
-14 -26 -7 -3 6 -22 11 -41 11 -21 0 -33 -4 -29 -10 3 -5 -1 -10 -9 -10 -9 0
-16 4 -16 8 0 5 -14 9 -31 9 -27 0 -30 -3 -26 -24 3 -17 0 -23 -13 -23 -9 0
-25 -9 -34 -19 -10 -11 -25 -17 -34 -15 -16 5 -16 4 -1 -7 15 -11 12 -15 -24
-33 -22 -11 -35 -22 -29 -24 25 -8 11 -18 -19 -14 -22 3 -30 1 -25 -7 4 -6 1
-11 -8 -11 -8 0 -18 5 -21 10 -4 6 -13 2 -23 -9 -20 -23 -72 -39 -72 -22 0 6
-5 11 -11 11 -5 0 -7 -5 -4 -10 6 -10 -1 -14 -47 -24 -16 -4 -28 -13 -28 -21
0 -9 -9 -15 -21 -15 -18 0 -20 -4 -14 -31 6 -28 5 -30 -14 -24 -14 4 -28 -1
-43 -15 l-23 -22 38 7 c37 7 53 -7 21 -19 -9 -4 -14 -13 -10 -21 3 -9 -1 -16
-9 -16 -35 -3 -40 -6 -38 -17 2 -6 -4 -9 -13 -5 -8 3 -13 12 -10 20 3 8 6 17
6 19 0 2 7 4 15 4 20 0 19 16 -1 24 -22 9 -24 8 -24 -10 0 -10 -6 -14 -15 -10
-10 3 -15 -1 -15 -13 0 -10 -9 -21 -20 -24 -11 -3 -20 -12 -20 -21 0 -9 6 -13
14 -10 8 3 17 1 21 -5 3 -6 -1 -11 -9 -11 -9 0 -16 -4 -16 -10 0 -5 9 -10 19
-10 11 0 23 -5 27 -12 4 -6 3 -9 -2 -6 -5 3 -17 -3 -26 -13 -12 -12 -13 -19
-5 -23 9 -3 9 -7 -1 -14 -7 -5 -10 -16 -6 -27 5 -12 4 -16 -4 -11 -6 3 -13 2
-17 -4 -3 -5 0 -10 7 -10 8 0 9 -3 3 -8 -6 -4 -19 -24 -30 -44 -10 -20 -23
-35 -27 -32 -4 3 -8 -2 -8 -10 0 -9 -5 -16 -11 -16 -5 0 -7 -4 -4 -10 3 -6 -1
-7 -9 -4 -16 6 -22 -7 -9 -20 21 -21 3 -86 -24 -86 -18 0 -16 -27 3 -34 8 -3
13 -10 9 -15 -3 -5 4 -12 15 -16 11 -3 20 -11 20 -16 0 -5 5 -9 10 -9 6 0 10
7 10 16 0 8 4 12 10 9 18 -11 11 -24 -15 -31 -14 -4 -24 -11 -22 -17 2 -6 -3
-18 -10 -27 -16 -19 -17 -34 0 -36 33 -3 37 -5 37 -19 0 -8 -4 -15 -10 -15 -5
0 -7 -6 -4 -14 3 -9 12 -12 21 -9 11 4 14 2 9 -8 -3 -8 -9 -22 -12 -31 -4 -10
-9 -18 -13 -18 -4 0 -7 -11 -7 -24 0 -14 5 -24 10 -23 15 3 14 -84 -1 -113 -7
-14 -13 -41 -13 -60 0 -19 -7 -48 -15 -64 -18 -35 -18 -36 0 -36 9 0 12 -6 9
-15 -4 -8 -1 -15 6 -15 9 0 11 -13 6 -46 -3 -28 -2 -43 4 -39 6 3 10 0 10 -8
0 -10 -7 -13 -19 -10 -16 4 -19 1 -14 -15 2 -11 0 -23 -6 -26 -6 -4 -6 -19 3
-44 12 -35 15 -37 57 -37 39 0 44 -3 47 -25 5 -34 17 -44 39 -31 17 10 17 10
0 11 -11 0 -17 5 -14 13 2 6 10 11 17 9 7 -2 9 5 5 17 -7 22 6 34 29 25 19 -7
21 -45 4 -63 -10 -11 -10 -14 0 -18 6 -3 12 -15 12 -29 0 -17 -4 -22 -15 -18
-13 6 -20 -6 -16 -28 0 -5 -6 -8 -14 -8 -11 0 -12 -5 -5 -26 6 -14 10 -37 10
-51 0 -18 4 -24 15 -19 13 4 14 2 5 -14 -6 -11 -8 -20 -5 -20 4 0 -3 -12 -15
-27 -12 -15 -17 -29 -11 -31 5 -2 8 -9 5 -17 -8 -20 12 -27 30 -10 9 9 17 11
21 5 10 -16 -4 -30 -22 -23 -13 5 -15 2 -10 -11 4 -10 7 -20 7 -22 0 -2 8 -4
19 -4 18 0 52 -30 35 -30 -5 0 -1 -5 8 -11 10 -5 15 -16 11 -24 -4 -11 -1 -13
11 -9 11 4 16 0 16 -14 0 -12 5 -24 10 -27 16 -10 12 -25 -5 -19 -8 4 -15 1
-15 -5 0 -6 8 -11 18 -11 16 -1 16 -1 0 -11 -17 -9 -17 -12 -2 -40 8 -17 13
-37 10 -46 -4 -11 -1 -13 15 -8 18 6 19 5 7 -14 -11 -18 -10 -22 7 -35 10 -7
26 -11 34 -8 10 4 13 1 8 -11 -4 -10 0 -20 11 -27 15 -8 15 -11 2 -20 -12 -8
-9 -10 13 -10 15 0 27 -5 27 -11 0 -7 -9 -9 -22 -6 -20 5 -20 3 7 -21 17 -15
25 -23 18 -18 -9 6 -13 3 -13 -7 0 -9 5 -19 11 -22 12 -8 33 -56 30 -68 -1 -5
6 -7 16 -5 11 3 32 -10 56 -35 20 -21 34 -32 31 -23 -4 11 -1 16 10 16 9 0 19
-7 22 -15 4 -8 10 -12 15 -9 5 3 9 -6 9 -21 0 -21 4 -25 24 -21 14 2 27 -1 30
-7 3 -8 7 -9 13 -1 11 15 55 13 49 -3 -3 -6 4 -15 15 -18 11 -4 33 -19 51 -35
27 -25 38 -28 84 -26 30 1 54 -2 54 -6 0 -5 -4 -8 -9 -8 -5 0 -7 -9 -4 -20 3
-11 8 -20 12 -20 15 1 37 26 34 38 -6 17 32 15 47 -3 9 -11 16 -12 31 -2 17
10 23 9 35 -8 8 -11 20 -20 27 -21 7 0 27 -2 45 -2 21 -1 32 -7 32 -17 0 -8 6
-15 14 -15 8 0 17 -6 20 -12 5 -10 7 -10 12 0 3 6 14 12 24 12 18 0 40 -44 40
-81 0 -11 5 -19 10 -19 6 0 10 -7 10 -15 0 -9 9 -15 25 -15 17 0 25 -6 25 -17
0 -15 2 -14 15 3 15 20 20 12 16 -28 -1 -10 3 -18 9 -18 6 0 9 4 6 8 -2 4 -1
14 4 22 5 8 5 19 0 25 -5 6 1 11 17 12 19 1 22 -1 12 -8 -11 -6 -11 -11 -1
-21 6 -6 12 -21 12 -31 0 -13 5 -17 14 -14 10 4 13 1 9 -9 -3 -7 -1 -14 5 -14
6 0 13 -13 17 -29 6 -30 44 -81 59 -81 4 0 6 7 3 15 -4 8 -1 17 4 21 6 3 9 15
6 25 -3 12 2 23 14 30 16 8 27 2 70 -43 28 -29 55 -52 60 -51 5 2 9 -4 9 -12
0 -8 13 -37 30 -65 16 -28 30 -54 30 -58 0 -4 16 -25 35 -46 19 -22 38 -49 41
-60 4 -12 16 -29 27 -39 11 -9 17 -17 12 -17 -4 0 -3 -6 4 -13 8 -10 7 -17 -1
-25 -9 -9 -8 -12 6 -12 9 0 14 -5 11 -10 -4 -7 485 -10 1458 -10 1165 0 1465
3 1464 13 0 6 1 25 1 40 2 26 3 27 18 12 10 -10 14 -24 10 -40 -6 -25 -6 -25
59 -25 63 0 65 1 65 25 0 19 5 25 16 23 10 -2 19 3 21 10 3 7 -4 12 -16 12
-15 0 -21 6 -21 24 0 13 7 26 15 30 8 3 13 11 11 18 -1 7 -1 10 1 7 2 -4 13
-5 23 -2 12 3 20 0 20 -7 0 -6 10 -10 23 -8 16 2 26 15 37 48 9 25 18 51 21
59 4 11 9 12 28 2 27 -15 65 -6 41 9 -13 9 -13 10 0 10 8 0 21 9 28 20 7 11
19 20 26 20 8 0 17 6 19 13 4 9 6 8 6 -2 2 -26 91 84 91 112 0 19 31 32 40 17
5 -8 15 -7 34 1 19 9 30 9 37 2 8 -8 21 -4 47 14 21 14 38 20 40 14 2 -6 11
-11 19 -11 12 0 13 3 4 14 -9 11 -8 15 6 21 26 12 29 12 66 14 31 1 34 4 47
54 8 28 19 90 24 137 11 84 11 85 39 85 27 1 56 -20 44 -31 -11 -11 56 -64 74
-59 13 4 16 1 13 -12 -2 -10 0 -25 6 -33 23 -37 56 47 36 93 -7 14 -3 17 19
17 17 0 25 4 22 13 -2 6 2 20 11 30 14 15 13 19 -4 39 -10 12 -13 18 -5 13 11
-6 13 -2 7 20 -5 19 -2 33 9 46 10 10 14 22 11 28 -4 5 -2 12 3 15 5 4 12 2
16 -4 8 -13 55 18 55 36 0 8 7 14 16 14 8 0 12 4 9 10 -3 5 -1 10 4 10 6 0 11
-8 12 -17 0 -11 3 -13 6 -6 7 18 30 16 37 -2 3 -8 12 -12 20 -9 8 3 17 0 21
-6 5 -8 13 -6 27 7 19 17 20 17 29 0 12 -21 25 -22 33 -1 4 9 2 13 -5 8 -7 -4
-9 -2 -5 7 3 8 9 22 12 31 3 10 15 20 26 24 14 4 18 12 15 26 -6 20 -1 29 36
69 17 19 17 22 3 44 -9 13 -12 26 -7 30 6 3 18 -8 27 -25 18 -30 59 -44 48
-16 -3 8 0 17 6 21 8 5 8 10 0 20 -13 16 7 65 27 65 8 0 12 4 8 9 -3 5 2 16
10 24 20 20 19 31 -1 23 -12 -5 -15 -2 -10 10 3 8 6 18 6 20 0 2 6 4 14 4 12
0 21 13 31 40 12 35 24 54 31 52 5 -2 10 2 13 9 2 7 -1 9 -8 5 -8 -5 -10 4 -9
28 2 19 5 34 8 34 18 -1 18 5 3 28 -15 23 -15 28 -2 38 8 6 13 19 11 29 -2 9
1 17 7 17 16 0 13 46 -4 60 -13 11 -12 15 10 36 14 13 25 34 25 48 0 13 7 32
16 40 8 9 13 20 9 25 -3 6 3 14 12 20 17 10 17 10 0 11 -16 0 -16 2 2 22 11
11 18 25 15 30 -7 12 -24 0 -24 -18 0 -8 -7 -14 -16 -14 -13 0 -14 3 -5 14 7
8 8 16 3 18 -5 1 -13 14 -17 27 -6 18 -4 23 6 19 8 -3 20 1 27 8 10 12 10 14
-3 14 -15 0 -20 17 -16 55 1 11 -4 30 -11 43 -8 16 -9 25 -2 30 17 11 36 52
24 52 -5 0 -10 5 -10 11 0 6 9 8 23 4 18 -6 20 -5 10 6 -20 20 -16 49 6 49 11
0 22 6 24 13 4 7 8 3 12 -10 4 -13 13 -23 20 -23 7 0 15 -7 19 -15 3 -8 12
-15 19 -15 8 0 20 7 27 15 14 17 30 20 30 5 0 -5 -7 -10 -15 -10 -18 0 -19
-12 -3 -28 17 -17 28 -15 28 6 1 15 2 15 17 -3 l16 -20 -8 20 c-4 11 -10 30
-12 42 -4 16 -11 22 -26 19 -24 -3 -41 10 -51 41 -5 15 -12 20 -23 16 -10 -4
-14 -2 -9 5 9 14 58 10 64 -6 2 -6 -1 -12 -7 -12 -6 0 -8 -7 -5 -15 4 -8 17
-15 30 -15 20 0 24 5 24 31 0 24 -3 30 -16 25 -11 -4 -18 1 -21 14 -3 13 -14
20 -29 20 -13 0 -24 5 -24 10 0 9 14 14 33 11 4 -1 6 13 3 31 -3 18 -8 50 -11
71 -3 20 -10 37 -16 37 -6 0 -15 14 -20 30 -6 17 -16 30 -22 30 -7 0 -6 4 3 9
8 6 18 7 22 5 10 -7 10 -7 -7 48 -8 30 -11 58 -6 75 4 15 6 34 3 42 -3 10 0
12 11 8 8 -3 18 0 21 8 6 16 -20 28 -37 18 -7 -4 -6 0 1 9 8 10 20 14 30 11
10 -4 5 7 -14 32 -26 34 -27 37 -6 26 28 -15 29 3 1 23 -15 10 -19 20 -15 33
4 9 4 14 0 11 -9 -9 -57 29 -60 46 -1 8 -16 27 -33 43 -17 17 -31 37 -31 46 0
9 -5 19 -12 23 -7 4 -8 3 -4 -4 4 -7 1 -12 -9 -12 -9 0 -15 6 -14 13 4 33 -2
49 -16 43 -9 -3 -19 3 -26 15 -7 14 -17 19 -30 16 -10 -3 -19 -1 -19 4 0 5 5
9 10 9 6 0 10 5 10 10 0 6 -9 10 -21 10 -16 0 -19 -4 -15 -17 6 -14 3 -14 -16
3 -13 10 -26 24 -30 29 -4 6 -8 2 -8 -7 0 -10 5 -18 10 -18 6 0 10 -6 10 -14
0 -21 -52 -17 -57 5 -7 27 -34 33 -40 9 -5 -21 -33 -28 -33 -9 0 5 4 8 9 4 6
-3 9 3 8 14 0 11 -4 18 -7 16 -4 -2 -21 5 -39 16 -19 11 -41 17 -52 14 -10 -4
-19 -2 -19 4 0 5 -10 11 -22 13 -15 2 -24 11 -26 26 -4 28 -28 29 -35 0 -6
-20 -9 -18 -51 23 -24 24 -42 48 -39 53 4 5 -10 6 -32 2 -25 -5 -35 -4 -30 3
3 6 4 11 0 11 -3 0 -9 -9 -13 -21 l-8 -20 -26 20 c-21 17 -35 20 -77 15 -41
-4 -51 -2 -51 9 0 24 -52 32 -67 11 -8 -12 -13 -13 -13 -5 0 10 -3 11 -14 2
-15 -12 -43 -5 -65 17 -10 9 -25 12 -50 7 -64 -12 -95 -12 -150 2 -29 8 -60
12 -69 8 -8 -3 -19 0 -24 7 -6 10 -10 10 -17 -1 -8 -13 -12 -13 -27 0 -16 12
-17 12 -11 -3 3 -10 2 -18 -3 -18 -6 0 -10 5 -10 11 0 7 -7 8 -17 4 -10 -4
-29 -9 -43 -11 -14 -3 -35 -12 -48 -20 -13 -8 -32 -12 -42 -9 -11 4 -20 2 -20
-4 0 -6 -7 -8 -15 -5 -8 4 -40 -5 -70 -20 -30 -14 -58 -25 -61 -25 -4 0 -10
-3 -13 -8 -19 -26 -69 -40 -126 -36 -33 2 -67 7 -75 10 -8 3 -26 8 -40 10 -13
2 -30 8 -36 14 -6 5 -14 6 -18 2 -9 -9 -35 28 -36 50 0 11 -4 15 -12 11 -6 -4
-17 0 -23 10 -10 14 -14 14 -24 2 -9 -11 -18 -10 -51 6 -22 11 -75 25 -117 31
-49 6 -83 17 -90 26 -9 12 -12 12 -13 3 0 -7 -4 -11 -10 -7 -5 3 -6 13 -3 22
5 13 2 15 -11 10 -14 -6 -17 -3 -12 9 5 14 4 15 -8 5 -12 -10 -16 -8 -21 8 -3
12 -11 21 -17 21 -6 0 -8 9 -5 20 3 11 2 20 -3 20 -4 0 -7 19 -5 43 1 23 -2
50 -7 59 -4 9 -9 44 -11 76 -1 33 -5 58 -9 55 -5 -2 -8 5 -8 16 0 11 -7 27
-16 35 -8 9 -11 16 -5 16 19 0 0 28 -22 33 -12 2 -29 7 -37 11 -9 4 -20 -1
-28 -11z m-962 -243 c0 -5 -4 -10 -9 -10 -6 0 -13 5 -16 10 -3 6 1 10 9 10 9
0 16 -4 16 -10z m2945 -320 c4 -6 -5 -10 -19 -10 -14 0 -26 5 -26 10 0 6 9 10
19 10 11 0 23 -4 26 -10z m-4455 -40 c0 -5 -4 -10 -10 -10 -5 0 -10 5 -10 10
0 6 5 10 10 10 6 0 10 -4 10 -10z m-1405 -140 c-3 -5 -10 -10 -16 -10 -5 0 -9
5 -9 10 0 6 7 10 16 10 8 0 12 -4 9 -10z m6122 4 c-3 -3 -12 -4 -19 -1 -8 3
-5 6 6 6 11 1 17 -2 13 -5z m43 -30 c0 -16 -26 -19 -35 -4 -3 6 -4 14 0 20 8
13 35 1 35 -16z m-6285 -244 c3 -5 1 -10 -4 -10 -6 0 -11 5 -11 10 0 6 2 10 4
10 3 0 8 -4 11 -10z m-8 -96 c13 5 14 4 3 -9 -16 -19 -30 -10 -29 18 1 18 2
19 6 4 3 -12 10 -16 20 -13z m6724 -291 c8 -9 14 -38 15 -64 l0 -48 -23 26
c-15 16 -22 31 -18 42 6 14 8 14 14 -3 10 -26 22 -6 14 22 -3 13 -13 22 -25
22 -13 0 -18 -5 -15 -14 3 -8 0 -19 -7 -26 -10 -8 -15 -7 -19 4 -4 9 -2 18 4
21 5 4 6 11 3 17 -4 6 -2 8 4 4 6 -3 13 -2 17 4 9 14 21 12 36 -7z m-6696 -73
c3 -5 1 -10 -4 -10 -6 0 -11 5 -11 10 0 6 2 10 4 10 3 0 8 -4 11 -10z m6605
-130 c0 -5 -2 -10 -4 -10 -3 0 -8 5 -11 10 -3 6 -1 10 4 10 6 0 11 -4 11 -10z
m160 -10 c0 -5 -4 -10 -10 -10 -5 0 -10 5 -10 10 0 6 5 10 10 10 6 0 10 -4 10
-10z m-6680 -284 c0 -3 -4 -8 -10 -11 -5 -3 -10 -1 -10 4 0 6 5 11 10 11 6 0
10 -2 10 -4z m-30 -26 c0 -5 -7 -7 -15 -4 -8 4 -15 8 -15 10 0 2 7 4 15 4 8 0
15 -4 15 -10z m0 -52 c0 -5 -9 -4 -19 2 -14 7 -22 7 -27 -1 -4 -8 -10 -7 -18
1 -8 9 -8 14 2 17 6 3 12 12 12 21 0 12 5 10 25 -8 14 -13 25 -27 25 -32z
m6465 -238 c3 -5 1 -10 -4 -10 -6 0 -11 5 -11 10 0 6 2 10 4 10 3 0 8 -4 11
-10z m-6405 -100 c0 -5 -4 -10 -10 -10 -5 0 -10 5 -10 10 0 6 5 10 10 10 6 0
10 -4 10 -10z m140 -235 c0 -8 -4 -15 -10 -15 -5 0 -10 7 -10 15 0 8 5 15 10
15 6 0 10 -7 10 -15z m6120 -165 c0 -5 -7 -7 -15 -4 -8 4 -12 10 -9 15 6 11
24 2 24 -11z m-65 -10 c3 -5 1 -10 -4 -10 -6 0 -11 5 -11 10 0 6 2 10 4 10 3
0 8 -4 11 -10z m-295 -180 c0 -5 -5 -10 -11 -10 -5 0 -7 5 -4 10 3 6 8 10 11
10 2 0 4 -4 4 -10z"/>
<path d="M6200 3672 c0 -5 7 -15 15 -22 8 -7 15 -9 15 -6 0 4 -7 14 -15 22 -8
9 -15 11 -15 6z"/>
<path d="M6128 3658 c9 -9 15 -9 24 0 9 9 7 12 -12 12 -19 0 -21 -3 -12 -12z"/>
<path d="M4040 3650 c-9 -6 -10 -10 -3 -10 6 0 15 5 18 10 8 12 4 12 -15 0z"/>
<path d="M6635 3620 c-3 -5 -1 -10 4 -10 6 0 11 5 11 10 0 6 -2 10 -4 10 -3 0
-8 -4 -11 -10z"/>
<path d="M3907 3596 c-4 -10 0 -12 14 -9 22 6 26 23 5 23 -8 0 -16 -6 -19 -14z"/>
<path d="M3760 3479 c0 -5 5 -7 10 -4 6 3 10 8 10 11 0 2 -4 4 -10 4 -5 0 -10
-5 -10 -11z"/>
<path d="M3440 1910 c0 -5 5 -10 11 -10 5 0 7 5 4 10 -3 6 -8 10 -11 10 -2 0
-4 -4 -4 -10z"/>
<path d="M3420 1839 c0 -5 5 -7 10 -4 6 3 10 8 10 11 0 2 -4 4 -10 4 -5 0 -10
-5 -10 -11z"/>
<path d="M3400 1739 c0 -5 5 -7 10 -4 6 3 10 8 10 11 0 2 -4 4 -10 4 -5 0 -10
-5 -10 -11z"/>
<path d="M3425 1520 c3 -5 8 -10 11 -10 2 0 4 5 4 10 0 6 -5 10 -11 10 -5 0
-7 -4 -4 -10z"/>
<path d="M3730 949 c0 -5 5 -7 10 -4 6 3 10 8 10 11 0 2 -4 4 -10 4 -5 0 -10
-5 -10 -11z"/>
<path d="M11186 381 c-4 -5 -3 -16 0 -25 4 -10 1 -17 -7 -18 -28 -3 -35 -5
-71 -23 -31 -15 -38 -24 -38 -47 0 -16 -5 -28 -12 -28 -10 0 -10 -2 -1 -8 8
-5 9 -13 3 -22 -7 -10 -10 -11 -10 -2 0 23 -16 12 -34 -25 -10 -20 -21 -32
-24 -27 -4 6 -26 19 -49 29 -24 11 -43 22 -43 27 0 4 -9 8 -19 8 -11 0 -23 5
-27 11 -4 8 -9 7 -16 -2 -8 -11 -9 -11 -5 2 3 8 -6 25 -19 38 -13 13 -24 32
-24 42 0 12 -7 19 -18 19 -31 0 -39 -18 -31 -68 8 -55 4 -66 -22 -59 -11 3
-19 2 -19 -1 0 -4 -4 -13 -9 -20 -7 -11 -12 -12 -29 -1 -17 10 -23 10 -36 0
-9 -7 -13 -18 -9 -24 4 -7 0 -8 -11 -4 -14 5 -17 3 -12 -8 3 -9 0 -15 -10 -15
-11 0 -13 -6 -9 -20 4 -12 2 -20 -5 -20 -6 0 -8 4 -5 10 3 5 0 10 -8 10 -7 0
-19 11 -25 25 -6 14 -18 25 -25 25 -8 0 -26 9 -40 20 -30 24 -37 25 -37 5 0
-8 -6 -15 -14 -15 -27 0 -46 12 -46 30 0 10 -6 20 -14 23 -8 3 -12 14 -10 24
3 11 -10 33 -34 59 -48 51 -59 55 -94 38 -21 -11 -28 -24 -33 -57 -5 -29 -18
-56 -39 -80 -26 -30 -32 -44 -30 -78 2 -37 0 -40 -19 -35 -12 3 -25 6 -29 6
-3 0 -4 10 -1 23 4 18 3 19 -6 7 -10 -13 -12 -13 -21 0 -9 14 -14 36 -11 53 1
4 -18 7 -41 5 -25 -1 -43 3 -46 10 -2 7 -10 12 -18 12 -8 0 -14 7 -14 15 0 8
-4 15 -10 15 -5 0 -10 7 -10 15 0 8 -4 15 -8 15 -10 0 -42 -54 -42 -72 0 -8
-6 -20 -12 -27 -7 -6 -13 -15 -13 -19 -1 -20 -32 -72 -42 -72 -12 0 -17 12
-10 26 5 11 -34 25 -56 19 -17 -5 -19 -4 -7 4 9 6 10 11 3 11 -6 0 -18 3 -27
6 -10 4 -16 1 -16 -8 0 -7 -13 -29 -29 -48 -27 -33 -30 -34 -54 -21 -23 12
-25 19 -24 70 1 31 6 62 11 69 12 19 2 24 -27 13 -23 -9 -28 -7 -39 12 -6 12
-10 22 -7 22 2 0 -4 11 -13 24 l-17 24 -26 -29 c-34 -37 -51 -69 -66 -128 -9
-35 -16 -46 -28 -43 -9 2 -15 9 -13 16 1 7 -1 18 -6 25 -5 6 -12 23 -16 39 -7
30 -12 32 -51 17 -18 -7 -25 -15 -21 -26 3 -8 -6 -38 -19 -66 -14 -29 -25 -64
-25 -80 l0 -28 1220 0 c1037 0 1219 2 1214 14 -3 8 -13 12 -24 9 -19 -5 -90
58 -125 110 -10 16 -24 26 -31 23 -8 -3 -17 8 -24 27 -6 18 -26 48 -45 67 -19
19 -35 37 -35 41 0 4 -12 10 -26 13 -29 8 -54 29 -54 45 0 6 -7 11 -15 11 -8
0 -15 7 -15 15 0 16 -35 21 -44 6z"/>
<path d="M2673 293 c-20 -7 -15 -34 10 -61 12 -14 16 -22 10 -18 -19 11 -16
-5 4 -19 20 -15 44 -9 37 10 -3 7 -1 16 5 20 10 6 15 -13 12 -42 -1 -7 8 -17
19 -23 13 -7 20 -7 20 0 0 5 5 10 10 10 6 0 10 -12 10 -27 0 -14 3 -24 6 -20
3 3 16 2 29 -3 60 -23 71 53 14 99 -45 36 -68 44 -87 29 -12 -10 -14 -10 -8 0
4 7 2 12 -8 12 -8 0 -19 6 -23 14 -9 16 -42 26 -60 19z"/>
<path d="M8637 204 c2 -7 -8 -13 -26 -16 -17 -3 -31 -1 -31 4 0 5 -10 8 -22 6
-18 -2 -24 -12 -30 -47 -4 -25 -17 -52 -31 -65 -19 -18 -47 -65 -47 -81 0 -3
86 -5 190 -5 l190 0 0 28 c0 16 6 49 13 73 13 46 9 110 -8 116 -13 4 -55 -61
-55 -86 0 -11 -9 -23 -20 -26 -11 -3 -20 -13 -20 -21 0 -19 -29 -18 -36 1 -4
8 -11 15 -18 15 -12 0 -15 16 -16 82 0 30 -4 36 -19 35 -10 0 -17 -6 -14 -13z"/>
<path d="M11734 57 c-6 -7 -9 -17 -7 -23 2 -6 -6 -15 -19 -19 -19 -7 -14 -9
25 -12 26 -2 67 -3 90 -1 l42 3 -30 15 c-16 8 -32 17 -35 20 -6 6 -49 30 -52
30 -2 -1 -8 -6 -14 -13z"/>
<path d="M2865 41 c-3 -5 -1 -12 5 -16 5 -3 10 1 10 9 0 18 -6 21 -15 7z"/>
<path d="M2902 24 c3 -16 13 -19 58 -22 48 -2 53 0 38 11 -10 8 -14 17 -10 21
4 5 -4 6 -18 4 -14 -2 -24 -9 -22 -16 1 -8 -6 -7 -24 5 -25 16 -26 16 -22 -3z"/>
</g>
</svg>
